<?xml version="1.0" encoding="utf-8"?>
<!-- Generator: Adobe Illustrator 24.1.2, SVG Export Plug-In . SVG Version: 6.00 Build 0)  -->
<svg version="1.1" id="ad1dd13e-2ec4-4c24-88e7-d38d592282c0"
	 xmlns="http://www.w3.org/2000/svg" xmlns:xlink="http://www.w3.org/1999/xlink" x="0px" y="0px" viewBox="0 0 500 500"
	 style="enable-background:new 0 0 500 500;" xml:space="preserve">
<style type="text/css">
	.st0{fill:#F2F2F2;}
	.st1{fill:#FFFFFF;}
	.st2{fill:#E6E6E6;}
	.st3{fill:#407BFF;}
	.st4{fill:#CCCCCC;}
</style>
<path class="st0" d="M306,49H85.6c-4.3,0-7.7,3.5-7.7,7.7v297.8c0,4.3,3.5,7.7,7.7,7.7H306c4.3,0,7.7-3.5,7.7-7.7V56.7
	C313.7,52.5,310.3,49,306,49z"/>
<path class="st1" d="M92.4,58.5c-3,0.1-5.4,2.5-5.3,5.5v283.2c0,3,2.3,5.4,5.3,5.5h206.7c3-0.1,5.4-2.5,5.3-5.5V64
	c0-3-2.3-5.4-5.3-5.5H92.4z"/>
<path class="st2" d="M103.2,71.6c-2,0-3.6,1.8-3.6,4v39c0,2.2,1.6,4,3.6,4h185.2c2,0,3.6-1.8,3.6-4v-39c0-2.2-1.6-4-3.6-4H103.2z"/>
<path class="st2" d="M103.2,137.6c-2,0-3.6,1.7-3.6,3.7v83.3c0,2,1.6,3.6,3.6,3.7h185.2c2,0,3.6-1.7,3.6-3.7v-83.3
	c0-2-1.6-3.6-3.6-3.7H103.2z"/>
<rect x="122.6" y="77.1" class="st1" width="146.5" height="8.3"/>
<rect x="122.9" y="94.7" class="st1" width="146.5" height="3.9"/>
<rect x="122.9" y="101.6" class="st1" width="146.5" height="3.9"/>
<rect x="122.9" y="108.4" class="st1" width="146.5" height="3.9"/>
<path class="st1" d="M209.6,228.4H277c1.2,0,2.2-1,2.2-2.2c0-0.6-0.2-1.1-0.6-1.5l-43.2-43.2c-0.8-0.8-2.2-0.8-3.1,0l-10.7,10.7
	c-1.8,1.8-4.7,1.8-6.4,0c0,0,0,0,0,0l-33.6-33.6c-0.8-0.8-2.2-0.8-3.1,0l-65.7,65.7c-0.8,0.8-0.8,2.2,0,3.1c0.4,0.4,1,0.6,1.5,0.6
	h95.4L209.6,228.4z"/>
<circle class="st1" cx="129.4" cy="157.2" r="8.3"/>
<path class="st2" d="M103.2,247.8c-2,0-3.6,1.7-3.6,3.7v83.3c0,2,1.6,3.6,3.6,3.7h185.2c2,0,3.6-1.7,3.6-3.7v-83.3
	c0-2-1.6-3.6-3.6-3.7H103.2z"/>
<path class="st1" d="M209.6,338.6H277c1.2,0,2.2-1,2.2-2.2c0-0.6-0.2-1.1-0.6-1.5l-43.2-43.2c-0.8-0.8-2.2-0.8-3.1,0l-10.7,10.7
	c-1.8,1.8-4.7,1.8-6.4,0c0,0,0,0,0,0l-33.6-33.6c-0.8-0.8-2.2-0.8-3.1,0l-65.7,65.7c-0.8,0.8-0.8,2.2,0,3.1c0.4,0.4,1,0.6,1.5,0.6
	h95.4L209.6,338.6z"/>
<circle class="st1" cx="129.4" cy="267.4" r="8.3"/>
<path class="st2" d="M163,117.5c-3,0-5.4,2.4-5.4,5.4v297.8c0,3,2.4,5.4,5.4,5.4h220.4c3,0,5.4-2.4,5.4-5.4V122.9
	c0-3-2.4-5.4-5.4-5.4H163z"/>
<path class="st1" d="M169.6,125.8c-3,0.1-5.4,2.5-5.3,5.5v283.2c0,3,2.3,5.4,5.3,5.5h206.7c3-0.1,5.4-2.5,5.3-5.5V131.3
	c0-3-2.3-5.4-5.3-5.5H169.6z"/>
<path class="st3" d="M201.9,167c-1.3,0-2.4,1.1-2.4,2.4v10.9c0,1.3,1.1,2.4,2.4,2.4h140.5c1.3,0,2.4-1.1,2.4-2.4v-10.9
	c0-1.3-1.1-2.4-2.4-2.4H201.9z"/>
<path class="st4" d="M201,203.2c-0.3,0-0.6,0.3-0.6,0.6v4.3c0,0.3,0.3,0.6,0.6,0.6h142.9c0.3,0,0.6-0.3,0.6-0.6v-4.3
	c0-0.3-0.3-0.6-0.6-0.6H201z"/>
<path class="st4" d="M201,217.1c-0.3,0-0.6,0.3-0.6,0.6v4.3c0,0.3,0.3,0.6,0.6,0.6h142.9c0.3,0,0.6-0.3,0.6-0.6v-4.3
	c0-0.3-0.3-0.6-0.6-0.6H201z"/>
<path class="st4" d="M201,231c-0.3,0-0.6,0.3-0.6,0.6v4.3c0,0.3,0.3,0.6,0.6,0.6h142.9c0.3,0,0.6-0.3,0.6-0.6v-4.3
	c0-0.3-0.3-0.6-0.6-0.6H201z"/>
<path class="st4" d="M200.7,258.7c-0.3,0-0.6,0.3-0.6,0.6v4.3c0,0.3,0.3,0.6,0.6,0.6h142.9c0.3,0,0.6-0.3,0.6-0.6v-4.3
	c0-0.3-0.3-0.6-0.6-0.6H200.7z"/>
<path class="st4" d="M200.7,272.5c-0.3,0-0.6,0.3-0.6,0.6v4.3c0,0.3,0.3,0.6,0.6,0.6h142.9c0.3,0,0.6-0.3,0.6-0.6v-4.3
	c0-0.3-0.3-0.6-0.6-0.6H200.7z"/>
<path class="st4" d="M200.7,286.4c-0.3,0-0.6,0.3-0.6,0.6v4.3c0,0.3,0.3,0.6,0.6,0.6h142.9c0.3,0,0.6-0.3,0.6-0.6V287
	c0-0.3-0.3-0.6-0.6-0.6H200.7z"/>
<path class="st4" d="M200.7,300.4c-0.3,0-0.6,0.3-0.6,0.6v4.3c0,0.3,0.3,0.6,0.6,0.6h142.9c0.3,0,0.6-0.3,0.6-0.6V301
	c0-0.3-0.3-0.6-0.6-0.6H200.7z"/>
<path class="st4" d="M200.7,314.2c-0.3,0-0.6,0.3-0.6,0.6v4.3c0,0.3,0.3,0.6,0.6,0.6h142.9c0.3,0,0.6-0.3,0.6-0.6v-4.3
	c0-0.3-0.3-0.6-0.6-0.6H200.7z"/>
<path class="st4" d="M200.7,328.1c-0.3,0-0.6,0.3-0.6,0.6v4.3c0,0.3,0.3,0.6,0.6,0.6h142.9c0.3,0,0.6-0.3,0.6-0.6v-4.3
	c0-0.3-0.3-0.6-0.6-0.6H200.7z"/>
<path class="st4" d="M200.7,342c-0.3,0-0.6,0.3-0.6,0.6v4.3c0,0.3,0.3,0.6,0.6,0.6h142.9c0.3,0,0.6-0.3,0.6-0.6v-4.3
	c0-0.3-0.3-0.6-0.6-0.6H200.7z"/>
<path class="st4" d="M200.7,355.9c-0.3,0-0.6,0.3-0.6,0.6v4.3c0,0.3,0.3,0.6,0.6,0.6h142.9c0.3,0,0.6-0.3,0.6-0.6v-4.3
	c0-0.3-0.3-0.6-0.6-0.6H200.7z"/>
<path class="st4" d="M200.7,369.8c-0.3,0-0.6,0.3-0.6,0.6v4.3c0,0.3,0.3,0.6,0.6,0.6h142.9c0.3,0,0.6-0.3,0.6-0.6v-4.3
	c0-0.3-0.3-0.6-0.6-0.6H200.7z"/>
<circle class="st3" cx="378.6" cy="407.5" r="43.5"/>
<polygon class="st1" points="374.5,425.9 361.5,409.1 369.1,403.3 375.2,411.2 396,389.2 403,395.8 "/>
</svg>
